PathFileType	4	(X/Y/Z)	Patient4_TMGait_0pt3_02_right_01.trc.trc
DataRate	CameraRate	NumFrames	NumMarkers	Units	OrigDataRate	OrigDataStartFrame	OrigNumFrames
50.909090909091	50.909090909091	7	33	mm	50.909090909091	36	       141
Frame#	Time	Sacral			L.Shoulder			Chest			R.Shoulder			Neck			R.ASIS			L.ASIS			R.Thigh.Superior			R.Thigh.Lateral			R.Thigh.Inferior			R.Patella			L.Thigh.Superior			L.Thigh.Lateral			L.Thigh.Inferior			L.Patella			L.Shank.Superior			L.Shank.Lateral			L.Shank.Inferior			R.Shank.Superior			R.Shank.Lateral			R.Shank.Inferior			R.Heel			R.Midfoot.Superior			R.Midfoot.Lateral			R.Toe			L.Heel			L.Midfoot.Lateral			L.Midfoot.Superior			L.Toe			L.Elbow			L.Wrist			R.Elbow			R.Wrist			
		X1	Y1	Z1	X2	Y2	Z2	X3	Y3	Z3	X4	Y4	Z4	X5	Y5	Z5	X6	Y6	Z6	X7	Y7	Z7	X8	Y8	Z8	X9	Y9	Z9	X10	Y10	Z10	X11	Y11	Z11	X12	Y12	Z12	X13	Y13	Z13	X14	Y14	Z14	X15	Y15	Z15	X16	Y16	Z16	X17	Y17	Z17	X18	Y18	Z18	X19	Y19	Z19	X20	Y20	Z20	X21	Y21	Z21	X22	Y22	Z22	X23	Y23	Z23	X24	Y24	Z24	X25	Y25	Z25	X26	Y26	Z26	X27	Y27	Z27	X28	Y28	Z28	X29	Y29	Z29	X30	Y30	Z30	X31	Y31	Z31	X32	Y32	Z32	X33	Y33	Z33	

36	0.967500000000	706.579842399274	1002.685779797080	495.968884666279	916.081610160542	1439.266990081109	365.799014115823	979.793303224609	1364.879521267639	543.142407025653	858.527149682076	1431.422805319744	696.647718110814	864.176837870233	1494.515020710164	518.830159728905	916.017311497174	941.040280219423	651.481300197191	944.867591875755	961.833055785521	379.503490918768	974.208189771909	746.315885052320	618.827956144580	895.925827825001	630.578426040380	668.322728944704	984.195061878489	584.948547637935	594.776002797273	991.069760596376	495.044370747575	600.763890541230	958.182738627271	730.883013902480	401.142378077050	858.940310605835	625.321896628092	329.194353036852	928.693190074343	534.740268906266	394.041023645195	915.105797480586	455.499105587378	392.864095873862	855.291113485995	398.593896980048	384.121067259567	725.184535126356	332.692728128190	332.513980621242	728.974288414426	204.612447661143	391.559375719907	960.251125050362	405.270505890023	604.150080728893	884.298162790795	301.610085346874	659.994159920143	929.220157386408	206.720505146919	599.532247563306	795.552139219430	43.140424972587	562.789693760257	964.846608202311	96.626296609139	604.766832451400	875.716771804414	37.157849797831	641.223214892426	1083.928017163217	45.801686669401	639.100751494785	552.777802130669	97.391017518597	428.355083141741	622.255239669601	68.011073876275	351.082416614087	719.602289481752	105.847981240220	373.963036157286	825.610148630734	35.915920797728	351.697241334585	987.710829213311	1108.193313806281	220.078095755428	1240.241576254097	1052.845643869815	241.211662677895	738.749460349449	1097.861788468068	781.213651119443	773.451812425225	840.847877640717	815.831475213728	
37	0.987142857143	707.029669919929	1003.314833245911	501.888836607606	914.116813548903	1440.368318596163	369.228904215575	979.752909889118	1366.156091598058	545.957866299799	859.866135637133	1432.268937974107	700.572216370663	863.553001961464	1495.496190916865	522.586841788071	917.807196310209	941.898604036398	655.246900104805	944.252339088159	962.906788074162	383.255795733928	973.483683307514	745.568300802252	621.981296553929	893.817861940817	630.514119301259	671.187891895024	980.998005632044	584.178268013360	597.018348007734	986.749766071963	494.448263745851	602.282354498850	961.997447968823	733.142979462472	404.394860721278	865.906440227533	625.958805696424	331.933792739314	938.372169065105	536.249768768154	396.165331516289	925.628605991676	455.754424461421	393.651400906373	863.731970681089	399.427133685069	384.959969610592	731.359515877088	338.050966182122	333.680694492624	731.871773232886	209.246451921387	390.969525771859	955.802394909375	404.944283783190	605.364270864467	879.891995100519	301.268802744324	660.994142193577	924.168710562510	206.521250265306	599.833193969556	789.906407380643	43.192278995824	562.836309575059	959.075987453261	96.384735851026	604.522018631277	870.062672698610	37.158117659278	641.201109428349	1078.336431394907	45.321869976270	639.221945944137	552.363997573966	109.815960667068	427.497031668627	619.968146984578	76.007163441197	350.551126537137	719.066018669707	108.631754865746	372.945782275965	820.037449328628	35.120648475316	351.901100921027	980.501034005571	1107.045894137118	224.909723198836	1230.782858617946	1040.583463032190	245.686299428973	744.670538472559	1097.719928012922	788.793056283154	783.839859582613	841.610558791323	825.093490507319	
38	1.006785714286	707.194146611139	1003.730391887674	507.815431739816	911.824187869070	1441.159801997221	372.371882756235	979.533588188443	1367.195171488587	548.430153359294	861.208540271239	1432.974054159472	704.222860571722	862.817247217090	1496.261102549737	526.062434064980	919.443476287417	942.566918331668	658.872886941931	943.250979236769	963.746944628746	386.812728809600	972.787367695962	744.828191512911	624.934407986684	891.891023206921	630.351798238238	673.951646719976	977.987360695679	583.403907348142	599.141667690699	982.687115705588	493.781525815035	603.763292713824	966.039155090792	735.542286242944	407.741534293932	873.566044010076	626.598965689255	334.719599211673	948.722318677670	538.021811001490	398.612829006999	936.957393033997	456.284439494616	394.834801226788	873.100096697348	400.387045417235	386.040712564189	738.656347818402	343.712139980138	334.832318721190	735.575520424393	214.376758712904	390.500319172856	951.546291090129	404.545141574580	606.540640013987	875.597112672079	300.906584770217	661.981410165667	919.173810102772	206.286210378035	600.111575574323	784.222499870715	43.267652556092	562.849447973508	953.301470031609	96.163920807157	604.302759642315	864.364255257269	37.174161108481	641.153248804532	1072.695481099106	44.820837870987	639.328353307299	552.895936765010	123.510916227644	426.527836786651	618.385070693572	85.201248551302	349.939462258770	719.044723919601	112.037043290232	372.052927895801	814.472832453783	34.147307557175	352.158275816849	972.862468547713	1105.568773086328	229.700918506972	1219.884450580884	1026.644987221445	249.941090411261	750.991166935312	1097.442789482685	796.329019887743	794.609730827109	842.308228116848	834.226498975748	
39	1.026428571429	707.069487442657	1003.872161681294	513.720071942589	909.202996502439	1441.581980624241	375.234445350454	979.119135427705	1367.939735753860	550.566879465994	862.528547505533	1433.494121681671	707.594160097543	861.959776549809	1496.755620602776	529.258833140199	920.928215274133	943.002058459610	662.334888255358	941.870906897374	964.311146233663	390.145947829289	972.247706541894	744.108116706789	627.686729037805	890.316654037580	630.057128361441	676.589860799838	975.384777756396	582.622970227836	601.143307349903	979.140079267718	493.002912485446	605.207480760848	970.225924690254	738.056238849066	411.202010247913	881.772097254230	627.254414054475	337.597849372436	959.520770142619	540.061258353910	401.462912220571	948.868526217665	457.101379597378	396.530128989390	883.188749817613	401.479530576976	387.461167349334	746.903745072260	349.615663674984	336.041151853912	739.976217388771	219.945032570680	390.251211945568	947.675053825121	404.028819449884	607.673199034454	871.544551089560	300.518813036481	662.947706705545	914.305562866925	205.988406588597	600.366705717582	778.489013421773	43.369110535652	562.837487629369	947.531609811294	95.983804750386	604.141477990514	858.613477159355	37.207269430572	641.088010525876	1066.999171477413	44.305660002140	639.420600018791	554.353841681511	138.208706762645	425.541963105698	617.547558388431	95.485772032456	349.306575166961	719.511978431934	116.104221678377	371.356283973904	809.011410521741	33.044059442141	352.434302231367	964.910049043472	1103.710103228460	234.508302414324	1207.380303927031	1011.037720269681	253.955932481290	757.710386877249	1096.963924284392	803.726838828054	805.874746893203	842.895047158239	843.135690301350	
40	1.046071428571	706.660730621589	1003.688694965301	519.571248805466	906.261596677767	1441.589753520239	377.824749587392	978.499609505371	1368.343523474311	552.377794228903	863.805287323940	1433.789635481017	710.685253460282	860.974579653987	1496.935956271148	532.180657039646	922.262279505063	943.173520975925	665.612417183483	940.133586009685	964.569980787618	393.237328426374	971.967039836614	743.407880416605	630.246042568099	889.229508311582	629.593504939573	679.078744837882	973.373064864421	581.824328316665	603.018964264130	976.323032002097	492.071634004797	606.606125055133	974.453214902121	740.654798770988	414.785051287332	890.333790104770	627.935089805255	340.602584564001	970.522478072593	542.358976283875	404.751294494325	961.113753638860	458.201509765857	398.798413761600	893.757292722303	402.704859369747	389.283979080898	755.874658330822	355.674271730884	337.394527477822	744.952885161853	225.845440744790	390.317128137626	944.346186744636	403.354238404652	608.750115284279	867.843892758041	300.098428146935	663.879162427915	909.624892866131	205.605289768650	600.596260543150	772.706570543192	43.497296463120	562.809264366693	941.778915325001	95.860556616397	604.062097632761	852.814095128468	37.256885148420	641.012989352330	1061.251650561323	43.787606417224	639.501048543790	556.689368731399	153.492897682901	424.679330361507	617.489646846575	106.627495204966	348.739089055318	720.464931599876	120.813664468658	370.918687642510	803.822996852357	31.904505310933	352.670200504756	956.755760455295	1101.433350883028	239.381204119730	1193.101528713083	993.853036845516	257.715616027763	764.811235415958	1096.230297027992	810.889878889290	817.750335480097	843.353426278269	851.731180506520	
41	1.065714285714	705.981964585286	1003.141252856363	525.335644986715	903.020318538419	1441.153587808773	380.151537693837	977.672614272181	1368.373695791748	553.875413653476	865.022588664193	1433.828000098766	713.499287327099	859.860383550153	1496.770759404891	534.833365235114	923.444139545269	943.062840570933	668.691477909994	938.073092454875	964.509127880800	396.083180890003	972.010071182672	742.714704316876	632.621581399317	888.718285025306	628.926501498919	681.397272826547	972.079816825399	580.990296347476	604.761711983266	974.386005403098	490.951618475876	607.942631981634	978.596891817039	743.299018446657	418.480687517515	899.024554345942	628.645769513939	343.744220767945	981.473538313440	544.889726591677	408.454839731225	973.433961283645	459.565756309597	401.626809191642	904.550335058500	404.054767258637	391.519601872628	765.303186490111	361.767610084090	338.982050615134	750.390972044880	231.917315855211	390.773856375788	941.668155001142	402.486756205788	609.756135763863	864.572564805555	299.637031863779	664.760081355977	905.176081636790	205.120250007136	600.797270361115	766.883453367885	43.652034359991	562.772371869393	936.057166335788	95.805877828252	604.080484912500	846.976895174283	37.321139416902	640.934189350624	1055.462934442544	43.278843250750	639.573085349140	559.839988694255	168.795336328586	424.115233780113	618.247563728165	118.257558712040	348.343686507800	721.940878816336	126.070278402260	370.784581810616	799.172373574766	30.863095564497	352.780287788350	948.490367253642	1098.718742534252	244.353860326848	1176.888402085320	975.283899953313	261.212617225479	772.266988198250	1095.203741572081	817.724505508252	830.353973591614	843.696501912212	859.926339306444	
42	1.085357142857	705.055793650648	1002.207285356537	530.980166884933	899.512729360281	1440.260031406631	382.223811135618	976.644418437752	1368.012306753111	555.075637894351	866.168225840802	1433.585980577423	716.042086036418	858.621274504158	1496.242691785503	537.222360598928	924.469908604939	942.662080584138	671.565361481391	935.731821833904	964.129126911881	398.695678750303	972.396859566832	742.005083473681	634.819943341969	888.819805436246	628.028776077182	683.530137275155	971.566360684781	580.099789898458	606.363129965429	973.401241362279	489.615924380322	609.196660665911	982.521279702228	745.939519993466	422.252596569433	907.595919354008	629.383639597342	347.000762883148	992.126028227541	547.612329612563	412.484524633269	985.574308507319	461.162751217996	404.921373729401	915.319736866668	405.510300668536	394.117382094842	774.909561931310	367.737546877870	340.879441883599	756.203080650824	237.943377172356	391.664241413669	939.691329633640	401.401572325017	610.676048350558	861.768527934874	299.126552246568	665.576739854007	900.981867268189	204.523917427420	600.967658762963	761.031607482946	43.833129695294	562.732163545129	930.379326761701	95.827496524532	604.206524040092	841.115548934468	37.397435633378	640.855943457656	1049.645232117787	42.789987372105	639.640649804383	563.749919754182	183.413426773880	424.039717162670	619.873794561920	129.878078563707	348.233046626190	724.031160011557	131.696055405225	370.971676080560	795.432369847636	30.079459991326	352.654838553350	940.166411895363	1095.565131658463	249.437443170892	1158.608435703938	955.632341253711	264.450191299838	780.048877614555	1093.862359964851	824.145705045479	843.804904948028	843.969472413959	867.635796833404	
